# xmcd
#
# Track frame offsets:
#	150
#	11169
#	26330
#	40395
#	54812
#	67561
#	81186
#	94662
#	105900
#	118952
#	134619
#	145218
#	162630
#	172592
#	187528
#	200389
#	219977
#	231250
#	248628
#	261524
#
# Disc length: 3649 seconds
#
# Revision: 19
# Processed by: cddbd v1.5.2PL0 Copyright (c) Steve Scherf et al.
# Submitted via: EasyCDDAExtractor 16.0.8.2
#
DISCID=040e3f14
DTITLE=Βάνου Τζένη - Αν σ' αρνηθώ αγάπη μου 1 1973-1982
DYEAR=2013
DGENRE=Ελαφρολαϊκή
TTITLE0=Χίλιες βραδιές [Μ. Πλέσσας-Ηλ. Λυμπερόπουλος]
TTITLE1=Οι αμαρτιές μου [Ζ. Ιακωβίδης-Σέβη Τηλιακού]
TTITLE2=Αγόρι μου [Τ. Βοσκόπουλος-Μ. Θειόπουλος]
TTITLE3=Δεν είσαι εσύ [Χ. Λυμπερόπουλος-Φίλ. Νικολάου]
TTITLE4=Σταγόνα-σταγόνα [1973, Μ. Πλέσσας-Ηλ. Λυμπερόπουλος]
TTITLE5=Αν είναι η αγάπη αμαρτία [Μ. Πλέσσας-Ηλ. Λυμπερόπουλος]
TTITLE6=Μια αμαρτία μόνιμη [1974 , Ζ. Ιακωβίδης-Πυθαγόρας]
TTITLE7=Σε βλέπω στο ποτήρι μου [1975, Μ. Πλέσσας-Ηλ. Λυμπερόπουλος]
TTITLE8=Έρωτά μου ανεπανάληπτε [1975, Γ. Κατσαρός-Πυθαγόρας]
TTITLE9=Έλα [Ζ. Ιακωβίδης-Πυθαγόρας]
TTITLE10=Το παλιορόλογο [1976, Αντώνης Ζάννας]
TTITLE11=Να μ' αγαπάς [1977, Γ. Μανίκας-Μάρω Μπιζάνη]
TTITLE12=Κι έκλαιγε μαζί μου ο Θεός [Α. Χρυσοβέργης-Μάρω Μπιζάνη]
TTITLE13=Έχασα εσένα [1978, Α. Χρυσοβέργης-Μάρω Μπιζάνη]
TTITLE14=Άκουσέ με [1979, Τάκης Μουσαφίρης]
TTITLE15=Η σκιά μου κι εγώ [Α. Χρυσοβέργης-Μάρω Μπιζάνη]
TTITLE16=Αν δε σ' αγαπούσα [Α. Χρυσοβέργης-Μάρω Μπιζάνη]
TTITLE17=Τις ώρες που σε θέλω [Α. Χρυσοβέργης-Μάρω Μπιζάνη]
TTITLE18=Το τραίνο της ζωής [1981, Τάκης Μουσαφίρης]
TTITLE19=Σ΄αγαπώ, σ΄αγαπώ [1968,εδώ νεώτ.εκτ., Ν.Μαμαγκάκης-Ν.Φώσκολος]
EXTD=
EXTT0=
EXTT1=
EXTT2=
EXTT3=
EXTT4=
EXTT5=
EXTT6=
EXTT7=
EXTT8=
EXTT9=
EXTT10=
EXTT11=
EXTT12=
EXTT13=
EXTT14=
EXTT15=
EXTT16=
EXTT17=
EXTT18=
EXTT19=
PLAYORDER=
